HIERARCHY
ROOT joint_Root
{
	OFFSET 0.0 0.0 0.0
	CHANNELS 6 Xposition Yposition Zposition Zrotation Xrotation Yrotation 
	JOINT Hips
	{
		OFFSET -17.1583 93.1646 452.98
		CHANNELS 6 Xposition Yposition Zposition Zrotation Xrotation Yrotation 
		JOINT Spine
		{
			OFFSET 15.7357 0.0 0.0
			CHANNELS 6 Xposition Yposition Zposition Zrotation Xrotation Yrotation 
			JOINT Chest
			{
				OFFSET 8.98455 -0.406207 0.0
				CHANNELS 6 Xposition Yposition Zposition Zrotation Xrotation Yrotation 
				JOINT Neck
				{
					OFFSET 16.3773 0.0 0.0
					CHANNELS 6 Xposition Yposition Zposition Zrotation Xrotation Yrotation 
					JOINT Head
					{
						OFFSET 6.45672 0.0 0.0
						CHANNELS 6 Xposition Yposition Zposition Zrotation Xrotation Yrotation 
						End Site
						{
							OFFSET 0.0 0.0 0.0
						}
					}
				}
				JOINT Shoulder_L
				{
					OFFSET 12.9942 -0.242716 4.98039
					CHANNELS 6 Xposition Yposition Zposition Zrotation Xrotation Yrotation 
					JOINT UpperArm_L
					{
						OFFSET 5.34809 0.0 0.0
						CHANNELS 6 Xposition Yposition Zposition Zrotation Xrotation Yrotation 
						JOINT LowerArm_L
						{
							OFFSET 24.3286 1.87007e-05 0.0
							CHANNELS 6 Xposition Yposition Zposition Zrotation Xrotation Yrotation 
							JOINT Hand_L
							{
								OFFSET 22.2916 0.0 0.0
								CHANNELS 6 Xposition Yposition Zposition Zrotation Xrotation Yrotation 
								End Site
								{
									OFFSET 0.0 0.0 0.0
								}
							}
						}
					}
				}
				JOINT Shoulder_R
				{
					OFFSET 12.9945 -0.242716 -4.98039
					CHANNELS 6 Xposition Yposition Zposition Zrotation Xrotation Yrotation 
					JOINT UpperArm_R
					{
						OFFSET -5.34813 0.0 0.0
						CHANNELS 6 Xposition Yposition Zposition Zrotation Xrotation Yrotation 
						JOINT LowerArm_R
						{
							OFFSET -24.3289 0.000322201 0.0
							CHANNELS 6 Xposition Yposition Zposition Zrotation Xrotation Yrotation 
							JOINT Hand_R
							{
								OFFSET -22.2915 -0.000108084 0.0
								CHANNELS 6 Xposition Yposition Zposition Zrotation Xrotation Yrotation 
								End Site
								{
									OFFSET 0.0 0.0 0.0
								}
							}
						}
					}
				}
			}
		}
		JOINT UpperLeg_L
		{
			OFFSET -2.19248 -6.46944 0.0
			CHANNELS 6 Xposition Yposition Zposition Zrotation Xrotation Yrotation 
			JOINT LowerLeg_L
			{
				OFFSET 39.0811 0.0 -1.23785e-05
				CHANNELS 6 Xposition Yposition Zposition Zrotation Xrotation Yrotation 
				JOINT Foot_L
				{
					OFFSET 40.9854 0.0 -1.26872e-05
					CHANNELS 6 Xposition Yposition Zposition Zrotation Xrotation Yrotation 
					JOINT Toes_L
					{
						OFFSET 11.7543 0.0 0.0
						CHANNELS 6 Xposition Yposition Zposition Zrotation Xrotation Yrotation 
						End Site
						{
							OFFSET 0.0 0.0 0.0
						}
					}
				}
			}
		}
		JOINT UpperLeg_R
		{
			OFFSET -2.19251 6.46944 0.0
			CHANNELS 6 Xposition Yposition Zposition Zrotation Xrotation Yrotation 
			JOINT LowerLeg_R
			{
				OFFSET -39.0811 -0.00228153 -0.0401928
				CHANNELS 6 Xposition Yposition Zposition Zrotation Xrotation Yrotation 
				JOINT Foot_R
				{
					OFFSET -40.9854 0.0 0.0
					CHANNELS 6 Xposition Yposition Zposition Zrotation Xrotation Yrotation 
					JOINT Toes_R
					{
						OFFSET -11.7543 0.0 0.0
						CHANNELS 6 Xposition Yposition Zposition Zrotation Xrotation Yrotation 
						End Site
						{
							OFFSET 0.0 0.0 0.0
						}
					}
				}
			}
		}
	}
}
MOTION
Frames:	9
Frame Time:	0.0333333
0.000000 0.000000 0.000000 0.000000 0.000000 -0.000000 -2.798920 91.697600 -1.542070 83.766500 0.888393 8.172630 15.735700 0.000005 -0.000001 73.268400 86.008800 -71.477600 8.984550 -0.406207 -0.000000 -0.080834 -2.420030 3.578020 16.377300 -0.000001 -0.000001 12.532200 3.925030 4.826070 6.456720 -0.000001 -0.000000 -5.521500 3.494790 17.861700 12.994200 -0.242716 4.980390 -92.886800 7.900260 -69.853100 5.348090 -0.000007 -0.000001 -71.850300 27.260700 -0.178749 24.328600 0.000019 0.000005 11.114400 27.128000 -23.308100 22.291600 -0.000001 0.000005 -1.963820 4.982410 7.691400 12.994500 -0.242716 -4.980390 86.755600 7.865260 -67.499000 -5.348130 -0.000001 -0.000004 -68.882200 -6.194890 -10.877500 -24.328900 0.000322 -0.000009 8.156200 -10.248800 -141.146000 -22.291500 -0.000108 -0.000004 46.655300 5.679930 -19.568000 -2.192480 -6.469440 -0.000000 -173.294000 7.700120 -1.463470 39.081100 -0.000007 -0.000012 0.423448 -0.725328 30.277500 40.985400 -0.000006 -0.000013 -0.468210 1.871060 -76.570200 11.754300 -0.000000 0.000003 0.000216 0.163898 -9.929370 -2.192510 6.469440 -0.000001 -170.649000 9.406110 -174.114000 -39.081100 -0.002282 -0.040193 0.160259 -0.492313 17.680900 -40.985400 0.000008 0.000006 5.706440 2.349410 -72.002900 -11.754300 -0.000006 -0.000006 -0.011189 0.279984 -5.195850
0.000000 0.000000 0.000000 0.000000 0.000000 -0.000000 -2.766560 91.704100 -1.546670 83.791900 0.873376 8.212440 15.735700 0.000005 -0.000001 73.493300 85.973900 -71.720100 8.984550 -0.406207 -0.000000 -0.005500 -2.407450 3.544640 16.377300 -0.000001 -0.000001 12.515900 4.063780 4.736910 6.456720 -0.000001 -0.000000 -5.589510 3.675820 17.881500 12.994200 -0.242716 4.980390 -92.884100 7.886240 -69.837700 5.348090 -0.000007 -0.000001 -71.979400 27.171200 -0.179703 24.328600 0.000019 0.000005 11.051000 27.113600 -23.196300 22.291600 -0.000001 0.000005 -1.922220 4.982010 7.699710 12.994500 -0.242716 -4.980390 86.752300 7.902620 -67.573500 -5.348130 -0.000001 -0.000004 -68.561200 -6.196070 -10.880500 -24.328900 0.000322 -0.000009 8.269310 -10.340700 -141.003000 -22.291500 -0.000108 -0.000004 46.469500 5.679260 -19.329600 -2.192480 -6.469440 -0.000000 -173.352000 7.685110 -1.389070 39.081100 -0.000007 -0.000012 0.423897 -0.727333 30.235200 40.985400 -0.000006 -0.000013 -0.438408 1.871960 -76.597100 11.754300 -0.000000 0.000003 0.000229 0.163670 -9.938640 -2.192510 6.469440 -0.000001 -170.678000 9.345690 -174.052000 -39.081100 -0.002282 -0.040193 0.163258 -0.502115 17.667900 -40.985400 0.000008 0.000006 5.685160 2.316770 -72.088100 -11.754300 -0.000006 -0.000006 -0.011325 0.280950 -5.156300
0.000000 0.000000 0.000000 0.000000 0.000000 -0.000000 -2.750440 91.709100 -1.567860 83.794000 0.884624 8.200470 15.735700 0.000005 -0.000001 73.730100 85.959800 -71.975600 8.984550 -0.406207 -0.000000 0.030238 -2.381650 3.507830 16.377300 -0.000001 -0.000001 12.511000 4.137560 4.661320 6.456720 -0.000001 -0.000000 -5.632850 3.800140 17.898900 12.994200 -0.242716 4.980390 -92.873700 7.859000 -69.841400 5.348090 -0.000007 -0.000001 -72.069800 27.162500 -0.151723 24.328600 0.000019 0.000005 11.064800 27.186400 -23.171400 22.291600 -0.000001 0.000005 -1.969650 4.982280 7.693990 12.994500 -0.242716 -4.980390 86.758300 7.900070 -67.604400 -5.348130 -0.000001 -0.000004 -68.151700 -6.249930 -10.750300 -24.328900 0.000322 -0.000009 8.299130 -10.330100 -140.872000 -22.291500 -0.000108 -0.000004 46.009900 5.679660 -19.466300 -2.192480 -6.469440 -0.000000 -173.350000 7.660540 -1.423860 39.081100 -0.000007 -0.000012 0.418226 -0.717994 30.221500 40.985400 -0.000006 -0.000013 -0.424189 1.894920 -76.528000 11.754300 -0.000000 0.000003 0.000197 0.164231 -9.915850 -2.192510 6.469440 -0.000001 -170.723000 9.439860 -174.077000 -39.081100 -0.002282 -0.040193 0.160145 -0.492668 17.656900 -40.985400 0.000008 0.000006 5.674940 2.379030 -72.000900 -11.754300 -0.000006 -0.000006 -0.010951 0.278277 -5.265750
0.000000 0.000000 0.000000 0.000000 0.000000 -0.000000 -2.732420 91.716300 -1.599310 83.780100 0.924456 8.190630 15.735700 0.000005 -0.000001 73.842100 85.940300 -72.095000 8.984550 -0.406207 -0.000000 0.071783 -2.376170 3.493870 16.377300 -0.000001 -0.000001 12.502600 4.179040 4.631780 6.456720 -0.000001 -0.000000 -5.657870 3.889950 17.829300 12.994200 -0.242716 4.980390 -92.873600 7.850210 -69.821500 5.348090 -0.000007 -0.000001 -72.152400 27.121500 -0.112303 24.328600 0.000019 0.000005 10.966200 27.055800 -23.073600 22.291600 -0.000001 0.000005 -2.022240 4.987490 7.584300 12.994500 -0.242716 -4.980390 86.781100 7.860930 -67.647700 -5.348130 -0.000001 -0.000004 -67.798600 -6.245710 -10.697700 -24.328900 0.000322 -0.000009 8.338620 -10.326900 -140.728000 -22.291500 -0.000108 -0.000004 45.679400 5.679070 -19.268100 -2.192480 -6.469440 -0.000000 -173.350000 7.682410 -1.456690 39.081100 -0.000007 -0.000012 0.422308 -0.725193 30.215000 40.985400 -0.000006 -0.000013 -0.408007 1.915200 -76.519300 11.754300 -0.000000 0.000003 0.000201 0.164174 -9.918160 -2.192510 6.469440 -0.000001 -170.709000 9.437210 -174.098000 -39.081100 -0.002282 -0.040193 0.159611 -0.491959 17.624200 -40.985400 0.000008 0.000006 5.663510 2.356920 -71.980500 -11.754300 -0.000006 -0.000006 -0.010828 0.277388 -5.302110
0.000000 0.000000 0.000000 0.000000 0.000000 -0.000000 -2.708920 91.727900 -1.635040 83.801900 0.909500 8.156760 15.735700 0.000005 -0.000001 74.322300 85.943600 -72.591700 8.984550 -0.406207 -0.000000 0.082617 -2.307690 3.460980 16.377300 -0.000001 -0.000001 12.488700 4.179680 4.606720 6.456720 -0.000001 -0.000000 -5.629680 3.877210 17.743500 12.994200 -0.242716 4.980390 -92.869300 7.850630 -69.850300 5.348090 -0.000007 -0.000001 -72.210300 27.151900 0.007608 24.328600 0.000019 0.000005 10.930800 26.949700 -23.080400 22.291600 -0.000001 0.000005 -2.002660 4.987790 7.578120 12.994500 -0.242716 -4.980390 86.793000 7.803700 -67.575800 -5.348130 -0.000001 -0.000004 -67.507300 -6.047230 -10.637900 -24.328900 0.000322 -0.000009 8.461330 -10.384600 -140.466000 -22.291500 -0.000108 -0.000004 45.693800 5.678580 -19.121100 -2.192480 -6.469440 -0.000000 -173.369000 7.625080 -1.489970 39.081100 -0.000007 -0.000012 0.418062 -0.719371 30.164000 40.985400 -0.000006 -0.000013 -0.389432 1.933330 -76.468300 11.754300 -0.000000 0.000003 0.000220 0.163840 -9.931740 -2.192510 6.469440 -0.000001 -170.733000 9.367490 -174.151000 -39.081100 -0.002282 -0.040193 0.158619 -0.489115 17.614800 -40.985400 0.000008 0.000006 5.639650 2.338250 -71.952800 -11.754300 -0.000006 -0.000006 -0.011205 0.280101 -5.191060
0.000000 0.000000 0.000000 0.000000 0.000000 -0.000000 -2.693160 91.739100 -1.664840 83.786400 0.941512 8.170370 15.735700 0.000005 -0.000001 74.419800 85.924600 -72.690500 8.984550 -0.406207 -0.000000 0.122920 -2.303900 3.459240 16.377300 -0.000001 -0.000001 12.553000 4.164740 4.557520 6.456720 -0.000001 -0.000000 -5.635330 3.888060 17.643600 12.994200 -0.242716 4.980390 -92.872100 7.867850 -69.872000 5.348090 -0.000007 -0.000001 -72.261700 27.055900 0.121094 24.328600 0.000019 0.000005 10.971000 27.081000 -23.065300 22.291600 -0.000001 0.000005 -2.022070 4.984480 7.647710 12.994500 -0.242716 -4.980390 86.787200 7.818450 -67.577200 -5.348130 -0.000001 -0.000004 -67.303900 -5.960490 -10.600000 -24.328900 0.000322 -0.000009 8.466770 -10.299800 -140.220000 -22.291500 -0.000108 -0.000004 45.459400 5.678220 -19.020300 -2.192480 -6.469440 -0.000000 -173.350000 7.597520 -1.497690 39.081100 -0.000007 -0.000012 0.416191 -0.717033 30.133400 40.985400 -0.000006 -0.000013 -0.370777 1.983610 -76.407600 11.754300 -0.000000 0.000003 0.000148 0.165088 -9.881050 -2.192510 6.469440 -0.000001 -170.725000 9.368370 -174.143000 -39.081100 -0.002282 -0.040193 0.156870 -0.485157 17.561900 -40.985400 0.000008 0.000006 5.589060 2.296310 -71.906600 -11.754300 -0.000006 -0.000006 -0.011301 0.280782 -5.163210
0.000000 0.000000 0.000000 0.000000 0.000000 -0.000000 -2.674160 91.756100 -1.704900 83.800000 0.926371 8.104220 15.735700 0.000005 -0.000001 74.529700 85.935500 -72.800900 8.984550 -0.406207 -0.000000 0.105680 -2.283240 3.457880 16.377300 -0.000001 -0.000001 12.557800 4.181850 4.443630 6.456720 -0.000001 -0.000000 -5.590390 3.932080 17.511100 12.994200 -0.242716 4.980390 -92.887200 7.909170 -69.871600 5.348090 -0.000007 -0.000001 -72.250300 27.037600 0.249020 24.328600 0.000019 0.000005 11.041100 27.273300 -23.065100 22.291600 -0.000001 0.000005 -2.047920 4.987650 7.580980 12.994500 -0.242716 -4.980390 86.783900 7.826460 -67.576900 -5.348130 -0.000001 -0.000004 -67.211100 -5.795670 -10.524500 -24.328900 0.000322 -0.000009 8.494320 -10.225900 -139.926000 -22.291500 -0.000108 -0.000004 45.204000 5.677790 -18.902700 -2.192480 -6.469440 -0.000000 -173.365000 7.547200 -1.555520 39.081100 -0.000007 -0.000012 0.418300 -0.722570 30.067900 40.985400 -0.000006 -0.000013 -0.349923 2.007170 -76.381000 11.754300 -0.000000 0.000003 0.000165 0.164805 -9.892540 -2.192510 6.469440 -0.000001 -170.730000 9.234760 -174.206000 -39.081100 -0.002282 -0.040193 0.153793 -0.476816 17.514100 -40.985400 0.000008 0.000006 5.502720 2.277950 -71.841700 -11.754300 -0.000006 -0.000006 -0.011241 0.280355 -5.180690
0.000000 0.000000 0.000000 0.000000 0.000000 -0.000000 -2.640290 91.764400 -1.733340 83.828700 0.864001 8.041410 15.735700 0.000005 -0.000001 74.809900 85.946100 -73.077800 8.984550 -0.406207 -0.000000 0.095300 -2.239790 3.464220 16.377300 -0.000001 -0.000001 12.657700 4.250840 4.299230 6.456720 -0.000001 -0.000000 -5.717710 4.023830 17.250000 12.994200 -0.242716 4.980390 -92.901400 7.939690 -69.851000 5.348090 -0.000007 -0.000001 -72.252300 26.993000 0.350752 24.328600 0.000019 0.000005 11.014200 27.296200 -22.997500 22.291600 -0.000001 0.000005 -2.039720 4.987240 7.589580 12.994500 -0.242716 -4.980390 86.779300 7.827350 -67.550100 -5.348130 -0.000001 -0.000004 -67.146300 -5.519360 -10.418400 -24.328900 0.000322 -0.000009 8.535570 -10.106200 -139.458000 -22.291500 -0.000108 -0.000004 45.069700 5.677480 -18.822800 -2.192480 -6.469440 -0.000000 -173.395000 7.503330 -1.613700 39.081100 -0.000007 -0.000012 0.410052 -0.709720 30.018900 40.985400 -0.000006 -0.000013 -0.334251 1.989640 -76.275300 11.754300 -0.000000 0.000003 0.000243 0.163421 -9.948760 -2.192510 6.469440 -0.000001 -170.753000 9.191750 -174.286000 -39.081100 -0.002282 -0.040193 0.155539 -0.482541 17.507600 -40.985400 0.000008 0.000006 5.559510 2.271040 -71.831700 -11.754300 -0.000006 -0.000006 -0.011104 0.279377 -5.220710
0.000000 0.000000 0.000000 0.000000 0.000000 -0.000000 -2.625940 91.779100 -1.788100 83.833900 0.854574 7.965410 15.735700 0.000005 -0.000001 75.081500 85.950500 -73.326100 8.984550 -0.406207 -0.000000 0.096691 -2.201950 3.510710 16.377300 -0.000001 -0.000001 12.718400 4.297470 4.033710 6.456720 -0.000001 -0.000000 -5.870550 4.084500 16.936400 12.994200 -0.242716 4.980390 -92.902400 7.942430 -69.851400 5.348090 -0.000007 -0.000001 -72.281100 26.988300 0.361898 24.328600 0.000019 0.000005 10.887300 27.233900 -22.797100 22.291600 -0.000001 0.000005 -2.034080 4.988650 7.559890 12.994500 -0.242716 -4.980390 86.753100 7.875900 -67.510600 -5.348130 -0.000001 -0.000004 -66.983100 -5.252500 -10.239800 -24.328900 0.000322 -0.000009 8.625560 -9.958160 -138.742000 -22.291500 -0.000108 -0.000004 44.914900 5.677270 -18.769300 -2.192480 -6.469440 -0.000000 -173.404000 7.496530 -1.701810 39.081100 -0.000007 -0.000012 0.408502 -0.708432 29.970000 40.985400 -0.000006 -0.000013 -0.329655 1.968450 -76.213000 11.754300 -0.000000 0.000003 0.000261 0.163101 -9.961760 -2.192510 6.469440 -0.000001 -170.764000 9.187940 -174.390000 -39.081100 -0.002282 -0.040193 0.153228 -0.475932 17.482800 -40.985400 0.000008 0.000006 5.473480 2.286700 -71.739600 -11.754300 -0.000006 -0.000006 -0.010552 0.275381 -5.384250
